/* XPM */
static char *img[] = {
"24 24 2 1",
"  c black",
"O c #FFFFFF",
"OOO      OOO            "
"OOO      OOO            "
"OOO      OOO            "
"OOO      OOO            "
"OOO      OOO            "
"OOO      OOO            "
"OOO      OOO            "
"OOO      OOO            "
"OOO      OOO            "
"OOO         OOO         "
"OOO         OOO         "
"OOO         OOO         "
"   OOO         OOOOOOOOO"
"   OOO         OOOOOOOOO"
"   OOO         OOOOOOOOO"
"   OOO                  "
"   OOO                  "
"   OOO                  "
"      OOOOOO            "
"      OOOOOO            "
"      OOOOOO            "
"            OOOOOOOOOOOO"
"            OOOOOOOOOOOO"
"            OOOOOOOOOOOO"
};