/* XPM */
static char *img[] = {
"24 24 2 1",
"  c black",
"O c #FFFFFF",
"                        "
"                        "
"                        "
"                        "
"                        "
"                        "
"                        "
"                        "
"                        "
"                        "
"                        "
"                        "
"                  OOOOOO"
"                  OOOOOO"
"                  OOOOOO"
"               OOO      "
"               OOO      "
"               OOO      "
"            OOO         "
"            OOO         "
"            OOO         "
"            OOO         "
"            OOO         "
"            OOO         "
};